<?xml version="1.0" encoding="UTF-8"?>
<!DOCTYPE svg PUBLIC "-//W3C//DTD SVG 1.1//EN" "http://www.w3.org/Graphics/SVG/1.1/DTD/svg11.dtd">
<!-- Creator: CorelDRAW X6 -->
<svg xmlns="http://www.w3.org/2000/svg" xml:space="preserve" width="1.27778in" height="1.27778in" version="1.1" style="shape-rendering:geometricPrecision; text-rendering:geometricPrecision; image-rendering:optimizeQuality; fill-rule:evenodd; clip-rule:evenodd"
viewBox="0 0 1278 1278"
 xmlns:xlink="http://www.w3.org/1999/xlink">
 <defs>
  <style type="text/css">
   <![CDATA[
    .str1 {stroke:#FEFEFE;stroke-width:2.41732}
    .str0 {stroke:#0098DA;stroke-width:3}
    .str2 {stroke:#373435;stroke-width:3}
    .str3 {stroke:#ED3237;stroke-width:6.94488}
    .fil5 {fill:none}
    .fil2 {fill:#00A859}
    .fil0 {fill:#00AFEF}
    .fil8 {fill:#373435}
    .fil4 {fill:#3E4095}
    .fil3 {fill:#A9A431}
    .fil7 {fill:#ED3237}
    .fil1 {fill:#FEFEFE}
    .fil9 {fill:#A9A431;fill-rule:nonzero}
    .fil6 {fill:#FEFEFE;fill-rule:nonzero}
   ]]>
  </style>
 </defs>
 <g id="Layer_x0020_1">
  <metadata id="CorelCorpID_0Corel-Layer"/>
  <path class="fil0" d="M640 8c347,0 629,282 629,629 0,347 -282,629 -629,629 -347,0 -629,-282 -629,-629 0,-347 282,-629 629,-629z"/>
  <path class="fil1" d="M640 34c333,0 603,270 603,603 0,333 -270,603 -603,603 -333,0 -603,-270 -603,-603 0,-333 270,-603 603,-603z"/>
  <path class="fil2" d="M640 58c320,0 580,260 580,580 0,320 -260,580 -580,580 -320,0 -580,-260 -580,-580 0,-320 260,-580 580,-580z"/>
  <path class="fil3" d="M640 92c301,0 545,244 545,545 0,301 -244,545 -545,545 -301,0 -545,-244 -545,-545 0,-301 244,-545 545,-545z"/>
  <polygon class="fil4" points="156,697 640,136 1124,697 640,1085 "/>
  <polygon class="fil4" points="115,841 640,233 1164,841 "/>
  <line class="fil5 str0" x1="466" y1="841" x2="126" y2= "829" />
  <line class="fil5 str0" x1="555" y1="841" x2="141" y2= "811" />
  <line class="fil5 str0" x1="584" y1="841" x2="156" y2= "794" />
  <line class="fil5 str0" x1="598" y1="841" x2="169" y2= "778" />
  <line class="fil5 str0" x1="607" y1="841" x2="183" y2= "763" />
  <line class="fil5 str0" x1="612" y1="841" x2="195" y2= "748" />
  <line class="fil5 str0" x1="616" y1="841" x2="207" y2= "734" />
  <line class="fil5 str0" x1="619" y1="841" x2="219" y2= "721" />
  <line class="fil5 str0" x1="622" y1="841" x2="230" y2= "708" />
  <line class="fil5 str0" x1="624" y1="841" x2="241" y2= "696" />
  <line class="fil5 str0" x1="625" y1="841" x2="251" y2= "684" />
  <line class="fil5 str0" x1="627" y1="841" x2="261" y2= "672" />
  <line class="fil5 str0" x1="628" y1="841" x2="271" y2= "660" />
  <line class="fil5 str0" x1="629" y1="841" x2="281" y2= "649" />
  <line class="fil5 str0" x1="630" y1="841" x2="290" y2= "638" />
  <line class="fil5 str0" x1="630" y1="841" x2="299" y2= "628" />
  <line class="fil5 str0" x1="631" y1="841" x2="308" y2= "617" />
  <line class="fil5 str0" x1="632" y1="841" x2="317" y2= "607" />
  <line class="fil5 str0" x1="632" y1="841" x2="326" y2= "597" />
  <line class="fil5 str0" x1="633" y1="841" x2="335" y2= "587" />
  <line class="fil5 str0" x1="633" y1="841" x2="343" y2= "577" />
  <line class="fil5 str0" x1="634" y1="841" x2="352" y2= "567" />
  <line class="fil5 str0" x1="634" y1="841" x2="360" y2= "557" />
  <line class="fil5 str0" x1="634" y1="841" x2="369" y2= "547" />
  <line class="fil5 str0" x1="635" y1="841" x2="377" y2= "538" />
  <line class="fil5 str0" x1="635" y1="841" x2="386" y2= "528" />
  <line class="fil5 str0" x1="636" y1="841" x2="394" y2= "518" />
  <line class="fil5 str0" x1="636" y1="841" x2="402" y2= "508" />
  <line class="fil5 str0" x1="636" y1="841" x2="411" y2= "498" />
  <line class="fil5 str0" x1="637" y1="841" x2="420" y2= "488" />
  <line class="fil5 str0" x1="637" y1="841" x2="428" y2= "478" />
  <line class="fil5 str0" x1="637" y1="841" x2="437" y2= "468" />
  <line class="fil5 str0" x1="637" y1="841" x2="446" y2= "457" />
  <line class="fil5 str0" x1="638" y1="841" x2="455" y2= "447" />
  <line class="fil5 str0" x1="638" y1="841" x2="465" y2= "436" />
  <line class="fil5 str0" x1="638" y1="841" x2="474" y2= "425" />
  <line class="fil5 str0" x1="638" y1="841" x2="484" y2= "414" />
  <line class="fil5 str0" x1="639" y1="841" x2="494" y2= "402" />
  <line class="fil5 str0" x1="639" y1="841" x2="504" y2= "390" />
  <line class="fil5 str0" x1="639" y1="841" x2="515" y2= "378" />
  <line class="fil5 str0" x1="639" y1="841" x2="526" y2= "365" />
  <line class="fil5 str0" x1="639" y1="841" x2="537" y2= "352" />
  <line class="fil5 str0" x1="640" y1="841" x2="549" y2= "338" />
  <line class="fil5 str0" x1="640" y1="841" x2="561" y2= "324" />
  <line class="fil5 str0" x1="640" y1="841" x2="574" y2= "309" />
  <line class="fil5 str0" x1="640" y1="841" x2="588" y2= "293" />
  <line class="fil5 str0" x1="640" y1="841" x2="602" y2= "277" />
  <line class="fil5 str0" x1="641" y1="841" x2="617" y2= "260" />
  <line class="fil5 str0" x1="641" y1="841" x2="633" y2= "241" />
  <line class="fil5 str0" x1="641" y1="841" x2="650" y2= "244" />
  <line class="fil5 str0" x1="641" y1="841" x2="665" y2= "263" />
  <line class="fil5 str0" x1="641" y1="841" x2="680" y2= "280" />
  <line class="fil5 str0" x1="642" y1="841" x2="694" y2= "296" />
  <line class="fil5 str0" x1="642" y1="841" x2="708" y2= "312" />
  <line class="fil5 str0" x1="642" y1="841" x2="721" y2= "327" />
  <line class="fil5 str0" x1="642" y1="841" x2="733" y2= "341" />
  <line class="fil5 str0" x1="642" y1="841" x2="745" y2= "355" />
  <line class="fil5 str0" x1="643" y1="841" x2="756" y2= "368" />
  <line class="fil5 str0" x1="643" y1="841" x2="767" y2= "380" />
  <line class="fil5 str0" x1="643" y1="841" x2="778" y2= "393" />
  <line class="fil5 str0" x1="643" y1="841" x2="788" y2= "405" />
  <line class="fil5 str0" x1="644" y1="841" x2="798" y2= "416" />
  <line class="fil5 str0" x1="644" y1="841" x2="807" y2= "427" />
  <line class="fil5 str0" x1="644" y1="841" x2="817" y2= "438" />
  <line class="fil5 str0" x1="644" y1="841" x2="826" y2= "449" />
  <line class="fil5 str0" x1="645" y1="841" x2="835" y2= "460" />
  <line class="fil5 str0" x1="645" y1="841" x2="844" y2= "470" />
  <line class="fil5 str0" x1="645" y1="841" x2="853" y2= "480" />
  <line class="fil5 str0" x1="646" y1="841" x2="862" y2= "490" />
  <line class="fil5 str0" x1="646" y1="841" x2="870" y2= "500" />
  <line class="fil5 str0" x1="646" y1="841" x2="879" y2= "510" />
  <line class="fil5 str0" x1="647" y1="841" x2="887" y2= "520" />
  <line class="fil5 str0" x1="647" y1="841" x2="896" y2= "530" />
  <line class="fil5 str0" x1="648" y1="841" x2="904" y2= "540" />
  <line class="fil5 str0" x1="648" y1="841" x2="913" y2= "549" />
  <line class="fil5 str0" x1="649" y1="841" x2="921" y2= "559" />
  <line class="fil5 str0" x1="649" y1="841" x2="930" y2= "569" />
  <line class="fil5 str0" x1="650" y1="841" x2="938" y2= "579" />
  <line class="fil5 str0" x1="650" y1="841" x2="947" y2= "589" />
  <line class="fil5 str0" x1="651" y1="841" x2="956" y2= "599" />
  <line class="fil5 str0" x1="652" y1="841" x2="964" y2= "609" />
  <line class="fil5 str0" x1="654" y1="841" x2="974" y2= "620" />
  <line class="fil5 str0" x1="655" y1="841" x2="983" y2= "631" />
  <line class="fil5 str0" x1="656" y1="841" x2="992" y2= "641" />
  <line class="fil5 str0" x1="657" y1="841" x2="1001" y2= "652" />
  <line class="fil5 str0" x1="659" y1="841" x2="1011" y2= "663" />
  <line class="fil5 str0" x1="661" y1="841" x2="1021" y2= "675" />
  <line class="fil5 str0" x1="663" y1="841" x2="1031" y2= "687" />
  <line class="fil5 str0" x1="665" y1="841" x2="1042" y2= "699" />
  <line class="fil5 str0" x1="668" y1="841" x2="1052" y2= "711" />
  <line class="fil5 str0" x1="672" y1="841" x2="1064" y2= "724" />
  <line class="fil5 str0" x1="676" y1="841" x2="1075" y2= "738" />
  <line class="fil5 str0" x1="683" y1="841" x2="1087" y2= "752" />
  <line class="fil5 str0" x1="692" y1="841" x2="1100" y2= "766" />
  <line class="fil5 str0" x1="705" y1="841" x2="1113" y2= "782" />
  <line class="fil5 str0" x1="727" y1="841" x2="1127" y2= "798" />
  <line class="fil5 str0" x1="773" y1="841" x2="1142" y2= "815" />
  <line class="fil5 str0" x1="918" y1="841" x2="1157" y2= "833" />
  <path class="fil6" d="M238 431l7 -12 -19 -11 10 -17 -10 -6 -10 17 -10 -6 11 -19 -10 -6 -18 31 49 28zm36 -95c7,5 8,10 4,14 -4,5 -8,4 -15,-1l-26 -21 -8 11 26 21c6,5 12,7 18,6 6,-1 10,-4 15,-9 4,-5 6,-11 5,-16 -1,-6 -4,-11 -10,-16l-26 -21 -8 11 26 21zm61 -75c-11,-12 -23,-13 -33,-4 -10,9 -11,21 -1,33l6 7c11,12 23,13 33,4 4,-3 6,-7 8,-11l10 0 0 -11 -10 0c-1,-4 -3,-7 -6,-11l-6 -7zm-23 20c-6,-7 -7,-12 -2,-16 4,-4 9,-2 15,4l6 7c1,1 2,2 2,2l-5 0 0 11 7 0c0,1 -1,2 -2,3 -4,4 -9,2 -15,-4l-6 -7zm76 -30l15 -9 8 6 12 -8 -47 -37 -11 7 14 58 12 -8 -3 -10zm6 -17l-9 6 -5 -17 13 11zm75 -41c4,-5 5,-11 2,-17 -5,-11 -15,-13 -27,-7l-19 9 23 51 12 -6 -9 -19 6 -3 17 16 14 -6 -20 -17zm-27 -11l6 -2c6,-3 9,-3 11,2 2,4 0,7 -6,9l-6 2 -5 -11zm111 -22c-4,-16 -14,-22 -27,-19 -13,3 -20,13 -16,29l2 9c4,16 14,22 27,19 13,-3 20,-13 16,-29l-2 -9zm-30 7c-2,-9 0,-14 5,-15 6,-1 9,2 11,11l2 9c2,9 0,14 -5,15 -6,1 -9,-2 -11,-11l-2 -9zm89 -38l1 56 14 0 -1 -24 17 0 1 24 14 0 -1 -56 -14 0 1 22 -17 0 -1 -22 -14 0zm88 2l-7 56 13 2 7 -56 -13 -2zm56 9l-15 54 12 3 9 -30 5 25 7 2 17 -19 -9 31 12 3 15 -54 -12 -3 -22 23 -7 -32 -12 -3zm123 73c7,-15 3,-26 -9,-32 -12,-6 -24,-3 -31,12l-4 8c-7,14 -3,26 9,32 12,6 24,3 31,-12l4 -8zm-27 -14c4,-8 9,-11 14,-8 5,3 6,8 2,16l-4 8c-4,8 -9,11 -14,8 -5,-3 -6,-8 -2,-16l4 -8zm62 48l-13 18 11 8 13 -18 34 -17 -13 -9 -18 11 4 -21 -13 -9 -5 38zm46 54l13 12 -4 9 10 10 25 -54 -9 -9 -53 27 10 10 9 -5zm18 1l-8 -7 15 -8 -8 16zm81 56c3,-7 1,-14 -4,-22 -8,-11 -17,-12 -25,-7 -7,5 -9,12 -5,24 1,4 2,7 2,9 0,2 -1,3 -2,4 -2,2 -5,1 -8,-3 -3,-4 -4,-8 -2,-12l-12 -4c-2,8 -1,15 6,24 7,10 17,12 25,6 4,-3 6,-6 7,-10 1,-4 0,-8 -2,-14 -3,-7 -3,-11 0,-12 3,-2 5,-1 8,2 3,4 3,7 2,11l12 4zm27 28l-49 28 7 12 49 -28 -7 -12z"/>
  <path class="fil6" d="M192 558l-56 -5 -1 14 45 4 -2 22 11 1 3 -35zm-43 109c0,13 7,21 20,21 12,0 18,-8 18,-22l0 -21 -56 1 0 14 19 0 0 8zm26 -8l0 5c0,7 -2,10 -7,10 -6,0 -8,-3 -8,-10l0 -5 15 0zm-23 93l4 17 -9 5 3 14 51 -31 -3 -13 -59 -8 3 14 10 1zm14 11l-2 -10 17 2 -15 8zm36 90l1 3 -20 10 6 12 20 -10 1 3 -14 22 7 13 18 -28 31 0 -6 -13 -25 0 -1 -3 20 -10 -6 -12 -20 10 -1 -3 15 -20 -6 -13 -19 25 -33 -2 7 13 26 2zm41 105l20 24 -8 7 8 9 17 -14 -5 -5 35 -29 -25 -30 -12 10c-5,4 -9,7 -12,9 -3,2 -5,3 -8,4 -2,1 -4,1 -6,1l-3 -3 -17 14 8 9 8 -7zm15 -3c3,-1 7,-3 10,-5 3,-2 8,-5 14,-10l4 -3 8 10 -26 22 -11 -13c1,0 1,0 2,0zm73 76l14 11 -4 9 11 9 20 -56 -10 -8 -50 32 11 9 8 -6zm18 0l-8 -6 14 -10 -6 16zm76 7l-23 51 12 6 10 -21 16 7 -10 21 12 6 23 -51 -12 -6 -9 20 -16 -7 9 -20 -12 -6zm126 62c1,-12 -5,-20 -16,-22 -13,-3 -24,3 -27,19l-2 9c-4,16 3,26 16,29 12,3 20,-1 24,-13l-13 -3c-2,4 -5,6 -9,5 -6,-1 -7,-6 -5,-15l2 -9c2,-9 6,-12 11,-11 4,1 6,5 6,9l13 3zm80 18l15 -27 -15 0 -12 22 -3 0 1 -22 -14 0 -1 56 14 0 1 -23 3 0 12 23 16 0 -16 -30zm86 14l17 -3 5 9 14 -3 -29 -52 -13 2 -10 59 14 -3 1 -10zm12 -14l-10 2 2 -17 8 16zm92 -27l5 -2 8 20 13 -5 -21 -52 -19 8c-12,5 -18,14 -14,24 3,7 8,11 15,11l-3 26 14 -5 2 -24zm-4 -10c-7,3 -9,2 -11,-2 -2,-4 1,-7 6,-9l6 -2 5 12 -6 2zm105 -47c5,-4 9,-4 12,0 3,4 1,7 -4,11 -4,3 -7,3 -11,0l-10 8c8,8 19,8 29,1 11,-8 15,-18 8,-27 -4,-5 -8,-7 -15,-6 2,-5 1,-10 -2,-14 -3,-4 -7,-6 -12,-6 -5,0 -9,2 -14,5 -5,3 -8,8 -9,13 -1,5 -1,9 2,14l10 -7c-1,-4 -1,-7 4,-10 4,-3 7,-3 9,0 2,3 1,6 -3,9l-5 4 7 9 6 -4zm78 -49l12 -13 9 4 10 -10 -54 -25 -9 9 27 53 10 -10 -5 -9zm1 -18l-7 7 -8 -15 16 8zm15 -75l49 29 34 -57 9 5 6 -10 -19 -11 -4 7 -39 -23 -7 12 39 23 -7 12 -39 -23 -7 12 39 23 -7 12 -39 -23 -7 12zm108 -95l3 -10 -24 -30 30 9 4 -13 -54 -17 -3 10 24 30 -31 -9 -4 13 54 17zm-23 -106l1 -15 45 3 1 -14 -45 -3 1 -15 -11 -1 -3 43 11 1zm36 -105l-2 -17 9 -4 -2 -14 -54 26 1 13 58 13 -2 -14 -10 -2zm-13 -13l1 10 -17 -3 16 -7z"/>
  <path class="fil7" d="M616 807l0 22 54 0 0 -22 -14 0c10,-123 20,-246 29,-369 6,-8 11,-16 17,-24 0,-10 0,-19 0,-29 -4,0 -9,0 -13,0 16,-24 23,-49 0,-79 -2,17 -8,27 -17,34 7,-25 9,-49 -6,-68 -2,20 -10,31 -20,39 8,-28 7,-54 -16,-74 -13,52 -108,87 -41,150 -6,0 -13,0 -19,0 0,8 0,17 0,25 6,6 12,12 18,18l36 377 -8 0z"/>
  <path class="fil1" d="M655 390c-12,-4 -38,-9 -60,-2 -4,4 -11,11 -15,15 16,0 33,0 49,0 -5,-4 -11,-9 -16,-13 14,0 28,0 42,0z"/>
  <polygon class="fil1" points="614,434 606,434 610,473 "/>
  <polygon class="fil1" points="616,434 622,434 619,481 "/>
  <polygon class="fil8" points="570,402 702,402 702,413 701,414 572,414 570,411 "/>
  <polygon class="fil8" points="584,426 668,426 668,436 588,436 588,429 "/>
  <path class="fil7" d="M781 500c-66,98 -126,184 -200,276 4,3 6,4 10,7 -39,19 -58,4 -54,-33 4,2 5,3 8,5 67,-92 135,-184 202,-276 -4,-3 -8,-6 -12,-8 5,-4 10,-7 15,-10 -11,-18 -27,-30 -50,-31 35,-18 60,-14 84,10l1 1c3,-4 8,-6 13,-6 10,0 18,8 18,18 0,4 -1,7 -3,10l3 3c24,23 51,30 80,26 -4,39 -28,68 -72,84 0,-35 -15,-55 -31,-74 -1,1 -3,3 -4,4 -2,-2 -5,-3 -7,-5z"/>
  <polygon class="fil1" points="810,461 814,465 782,501 779,498 "/>
  <path class="fil1" d="M790 500c1,0 1,1 2,1l0 0 0 0c19,14 31,37 37,65 1,-31 -11,-55 -34,-72 -2,2 -4,3 -5,5z"/>
  <path class="fil8" d="M824 472c11,11 24,17 37,22 -16,-3 -32,-7 -46,-24 -9,11 -16,22 -24,33l-3 3 -6 -5 32 -37 2 1c3,2 5,5 8,7z"/>
  <line class="fil5 str1" x1="812" y1="463" x2="786" y2= "441" />
  <path class="fil8" d="M783 500l-35 -18 26 17 -44 57 10 5 4 -6c12,-18 24,-36 37,-54l1 1 1 -2z"/>
  <line class="fil5 str2" x1="584" y1="770" x2="641" y2= "697" />
  <path class="fil7" d="M499 504c66,98 126,184 200,276 -4,3 -6,4 -10,7 39,19 58,4 54,-33 -4,2 -5,3 -8,5 -67,-92 -135,-184 -202,-276 4,-3 8,-6 12,-8 -5,-4 -10,-7 -15,-10 11,-18 27,-30 50,-31 -35,-18 -60,-14 -84,10l-1 1c-3,-4 -8,-6 -13,-6 -10,0 -18,8 -18,18 0,4 1,7 3,10l-3 3c-24,23 -51,30 -80,26 4,39 28,68 72,84 0,-35 15,-55 31,-74 1,1 3,3 4,4 2,-2 5,-3 7,-5z"/>
  <polygon class="fil1" points="469,464 466,468 497,505 500,502 "/>
  <path class="fil1" d="M490 504c-1,0 -1,1 -2,1l0 0 0 0c-19,14 -31,37 -37,65 -1,-31 11,-55 34,-72 2,2 3,3 5,5z"/>
  <path class="fil8" d="M456 476c-11,11 -24,17 -37,22 16,-3 32,-7 46,-24 9,11 16,22 24,33l3 3 6 -5 -32 -37 -2 1c-3,2 -5,5 -8,7z"/>
  <line class="fil5 str1" x1="468" y1="466" x2="494" y2= "444" />
  <path class="fil8" d="M496 503l35 -18 -26 17 44 57 -10 5 -4 -6c-12,-18 -24,-36 -37,-54l-1 1 -1 -2z"/>
  <path class="fil8" d="M678 744c-12,-9 -22,-20 -32,-32 -12,-15 -23,-31 -34,-46l-3 -4c20,25 47,56 69,82z"/>
  <path class="fil1" d="M705 786c15,1 27,-2 30,-18 -8,10 -18,15 -30,18z"/>
  <path class="fil1" d="M721 759c-6,20 -43,-29 -68,-65 23,29 71,56 68,65z"/>
  <path class="fil1" d="M575 783c-15,1 -27,-2 -30,-18 8,10 18,15 30,18z"/>
  <path class="fil1" d="M558 756c6,20 37,-32 52,-69 -19,33 -55,59 -52,69z"/>
  <path class="fil7" d="M569 534c-57,35 -48,128 -86,164 45,4 93,-31 136,-31 67,-1 120,85 196,55 -74,-37 -53,-131 -80,-171 -53,-79 -152,-94 -166,-17z"/>
  <path class="fil5 str1" d="M569 534c-57,35 -48,128 -86,164 45,4 93,-31 136,-31 67,-1 120,85 196,55 -74,-37 -53,-131 -80,-171 -53,-79 -152,-94 -166,-17z"/>
  <path class="fil1" d="M611 521c-84,13 -68,113 -107,156 59,-24 26,-138 107,-156z"/>
  <path class="fil1" d="M602 533c-14,9 -24,27 -31,47 -8,22 -14,48 -27,63 9,-18 16,-44 23,-64 8,-23 16,-42 36,-46z"/>
  <path class="fil1" d="M620 547c-25,0 -37,27 -40,75 10,-36 22,-66 40,-75z"/>
  <path class="fil1" d="M648 615c4,-19 1,-34 -4,-48 -6,-17 -20,-22 -15,-28 26,-11 32,53 19,76z"/>
  <path class="fil1" d="M660 648c4,-11 5,-41 -4,-38 -2,2 6,22 4,38z"/>
  <path class="fil1" d="M714 528c-30,-26 -70,-31 -91,-27 -22,5 -34,22 -34,17 -2,-34 85,-36 125,10z"/>
  <path class="fil8" d="M731 582c-15,-45 -50,-70 -114,-63 51,0 91,16 114,63z"/>
  <path class="fil1" d="M783 714c-38,-38 -17,-137 -81,-162 48,33 38,128 81,162z"/>
  <path class="fil1" d="M505 445c-5,7 3,11 5,6 12,-20 29,-22 51,-18 -25,-8 -44,-8 -56,11z"/>
  <path class="fil0" d="M426 800c143,-52 285,-54 428,0 0,48 0,95 0,143 -143,-52 -285,-51 -428,0 0,-48 0,-95 0,-143z"/>
  <path class="fil1" d="M426 843c143,-51 285,-52 428,0l0 99c-143,-52 -285,-51 -428,0l0 -99z"/>
  <path class="fil5 str3" d="M426 843c143,-51 285,-52 428,0"/>
  <path class="fil2" d="M426 892c143,-51 285,-52 428,0l0 50c-143,-52 -285,-51 -428,0l0 -50z"/>
  <path class="fil5 str3" d="M426 892c143,-51 285,-52 428,0"/>
  <path class="fil9" d="M505 862c9,-2 14,-11 12,-20 -2,-9 -10,-15 -19,-13 -9,2 -14,11 -12,20 2,9 10,15 19,13zm-1 -6c-5,1 -10,-3 -11,-8 -1,-6 1,-11 6,-12 5,-1 10,3 11,8 1,6 -1,11 -6,12zm18 -15c5,-1 7,-4 6,-10l-1 -6 -7 1 1 7 3 0c1,3 -1,4 -3,5l1 3zm16 15l25 -4 -1 -6 -16 2 13 -23 -1 -5 -24 4 1 6 16 -2 -13 23 1 5zm31 -4l14 -1c7,-1 11,-4 10,-10 0,-4 -3,-6 -6,-7 2,-2 4,-4 3,-7 0,-2 -1,-4 -3,-5 -2,-2 -5,-2 -8,-2l-14 1 3 32zm4 -20l-1 -7 6 -1c3,0 4,1 5,3 0,2 -1,4 -4,4l-6 1zm1 13l-1 -7 8 -1c3,0 5,1 5,3 0,2 -1,4 -4,4l-8 1zm25 4l23 -1 0 -6 -16 1 0 -7 14 -1 0 -6 -14 1 0 -7 16 -1 0 -6 -23 1 1 32zm29 -1l7 0 0 -10 3 -4 9 14 8 0 -13 -19 12 -14 -8 0 -12 14 0 -14 -7 0 0 32zm31 0l7 0 1 -32 -7 0 -1 32zm25 2c6,0 11,-3 12,-9 0,-6 -3,-8 -9,-10 -5,-2 -6,-2 -6,-5 0,-2 1,-3 4,-3 3,0 5,1 8,4l4 -5c-3,-3 -7,-5 -11,-5 -6,0 -11,3 -11,9 0,7 3,9 9,11 5,2 6,3 6,4 0,2 -2,3 -4,3 -3,0 -6,-2 -9,-4l-4 5c3,4 8,6 12,6zm23 1l7 1 3 -26 9 1 1 -7 -25 -3 -1 7 9 1 -3 26zm34 5c9,1 17,-5 18,-14 1,-9 -4,-18 -13,-19 -9,-1 -17,5 -18,14 -1,9 4,18 13,19zm1 -7c-5,-1 -8,-6 -7,-11 1,-6 5,-10 10,-9 5,1 8,6 7,11 -1,6 -5,10 -10,9zm21 9l6 1 4 -20 10 23 5 1 6 -32 -6 -1 -4 20 -10 -22 -6 -1 -6 32z"/>
 </g>
</svg>
